<svg xmlns="http://www.w3.org/2000/svg" width="64.301" height="60.448">
    <defs>
        <style>
            .cls-1{fill:#3f985a;fill-rule:evenodd}
        </style>
    </defs>
    <g id="Group_123" data-name="Group 123" transform="translate(-350 -795.75)">
        <path id="Path_186" data-name="Path 186" class="cls-1" d="m515.567 562.047-5.119 1.389v-3.1l5.119 1.456z" transform="translate(-101.266 250.014)"/>
        <path id="Path_185" data-name="Path 185" class="cls-1" d="M431.969 590.132c.29-1.361.6-2.719.866-4.086 1.541-7.939 3.112-15.873 4.572-23.827a2.319 2.319 0 0 1 2.559-2.069q19.776.01 39.553.025a4.175 4.175 0 0 1 1.768.486 1.543 1.543 0 0 1 .646.943q3.452 14.029 6.861 28.066c.38 1.557-.25 2.431-1.868 2.556-.167.012-.335.008-.5.008q-25.929 0-51.859.005a2.5 2.5 0 0 1-2.6-1.354zm54.459 0c-.045-.233-.07-.4-.111-.559q-3.361-13.37-6.708-26.745c-.124-.5-.327-.61-.8-.61q-19.051.016-38.1.008h-.666c-1.85 9.347-3.684 18.6-5.525 27.906z" transform="translate(-81.969 250.061)"/>
        <path id="Path_187" data-name="Path 187" class="cls-1" d="M498.185 566.2c-.646-2.647-1.346-5.23-1.887-7.844a2.161 2.161 0 0 0-2.222-1.86c-.482-.012-.962 0-1.443 0H484.6a8.487 8.487 0 0 1 6.87-5.58 8.724 8.724 0 0 1 9.318 5.483 8.583 8.583 0 0 1-2.603 9.801z" transform="translate(-94.911 252.351)"/>
        <path id="Path_188" data-name="Path 188" class="cls-1" d="M464.634 604.739h4.666v9.235h5.631v3.126h-15.714v-3.09h5.417z" transform="translate(-88.669 239.097)"/>
        <path id="Path_189" data-name="Path 189" class="cls-1" d="M493.228 546.1c.485-1.78.938-3.449 1.391-5.119l.294-.01 1.392 5.129z" transform="translate(-97.032 254.776)"/>
        <path id="Path_190" data-name="Path 190" class="cls-1" d="m506.385 551.9-2.139-2.164 4.529-2.614c.075.074.152.147.228.22z" transform="translate(-99.741 253.265)"/>
        <path id="Path_191" data-name="Path 191" class="cls-1" d="M505.176 571.366q1.3 2.268 2.605 4.535l-.184.158a3.928 3.928 0 0 1-.482-.2q-1.688-.964-3.366-1.941c-.587-.342-.621-.689-.167-1.178s.876-1 1.313-1.5z" transform="translate(-99.502 247.334)"/>
        <path id="Path_192" data-name="Path 192" class="cls-1" d="M483.511 549.83c-.715.734-1.374 1.412-2.1 2.165-.752-1.412-1.572-2.792-2.256-4.242l.209-.171z" transform="translate(-93.571 253.151)"/>
        <path id="Path_193" data-name="Path 193" class="cls-1" d="M440.247 588.61h13.236v6.47h-15.06l1.824-6.47z" transform="translate(-83.556 243.063)"/>
        <path id="Path_194" data-name="Path 194" class="cls-1" d="M481.193 595.089v-6.469c.214-.014.4-.033.579-.033 3.909 0 7.819.008 11.73-.014a.652.652 0 0 1 .761.587c.487 1.814 1.016 3.617 1.526 5.424.044.156.065.319.1.5z" transform="translate(-94.073 243.072)"/>
        <path id="Path_195" data-name="Path 195" class="cls-1" d="M453.98 583.546H440.4c.107-.407.194-.766.294-1.12.458-1.627.925-3.254 1.381-4.882.078-.275.134-.486.513-.485 3.744.017 7.488.014 11.232.018a.7.7 0 0 1 .158.047z" transform="translate(-84.043 245.903)"/>
        <path id="Path_196" data-name="Path 196" class="cls-1" d="M481.185 583.538v-6.43c.219-.014.419-.039.619-.039 3.284 0 6.569-.006 9.853.011.219 0 .589.127.633.271.616 2.035 1.188 4.082 1.787 6.186z" transform="translate(-94.071 245.901)"/>
        <path id="Path_197" data-name="Path 197" class="cls-1" d="M473.761 565.662v6.438h-11.74v-6.438z" transform="translate(-89.359 248.705)"/>
        <path id="Path_198" data-name="Path 198" class="cls-1" d="M462.126 588.613h11.711v6.47h-11.711z" transform="translate(-89.384 243.062)"/>
        <path id="Path_199" data-name="Path 199" class="cls-1" d="M462.105 583.556v-6.433h11.741v6.433z" transform="translate(-89.379 245.887)"/>
        <path id="Path_200" data-name="Path 200" class="cls-1" d="m442.756 572.106 1.829-6.457h9.939v6.457z" transform="translate(-84.621 248.709)"/>
        <path id="Path_201" data-name="Path 201" class="cls-1" d="M492.169 572.1h-11.03v-6.451c.154-.014.313-.043.472-.043 2.721 0 5.441.01 8.162-.014a.619.619 0 0 1 .724.551c.536 1.969 1.103 3.933 1.672 5.957z" transform="translate(-94.059 248.724)"/>
    </g>
</svg>
