<svg xmlns="http://www.w3.org/2000/svg" width="90" height="90">
    <defs>
        <style>
            .cls-2{fill:#e0c397}.cls-2,.cls-4,.cls-5{fill-rule:evenodd}.cls-4{fill:#f6f6f6}.cls-5{fill:#f5f4f2}
        </style>
    </defs>
    <g id="Group_236" data-name="Group 236" transform="translate(-638 -762)">
        <circle id="Ellipse_5" data-name="Ellipse 5" cx="45" cy="45" r="45" transform="translate(638 762)" style="fill:#fff"/>
        <g id="Group_122" data-name="Group 122" transform="translate(396.374 404.534)">
            <g id="Group_121" data-name="Group 121" transform="translate(244.126 384.924)">
                <path id="Path_175" data-name="Path 175" class="cls-2" d="M607.711 444.92c-.39.448-.659.8-.972 1.107a3.123 3.123 0 0 1-5.171-1.226c-.049-.148.029-.394-.215-.409-.159-.01-.209.182-.3.292a8.482 8.482 0 0 1-1.655 1.776c-1.515.986-4.038.936-5.038-.962-.319-.6-.5-.324-.731.033a2.988 2.988 0 0 1-1.643 1.3c-1.631.511-2.546-.234-3.529-1.686-.132-.2-.146-.473-.45-.613a5.417 5.417 0 0 1-.955 1.791 2.853 2.853 0 0 1-2.777.333 1.335 1.335 0 0 1-.661-1.168c-.04-1.7-.119-3.4-.147-5.1-.065-3.969-.337-7.932-.317-11.9 0-.582-.444-1.349.326-1.648a2.623 2.623 0 0 1 2.314.4 2.532 2.532 0 0 1 1.238 2.3c-.027 2.66-.009 5.321-.009 8.179.636-.417.639-.9.807-1.273a6.366 6.366 0 0 1 .6-1.1 1.888 1.888 0 0 1 2.126-.952 2.186 2.186 0 0 1 1.339 2.367 8.52 8.52 0 0 1-1.766 4.239c-.143.2-.293.4-.451.585-.89 1.062-.917 1.3-.238 2.519.132.236.3.453.45.678.624.929 1.165 1.2 2.015 1.018a2.206 2.206 0 0 0 1.622-1.91c.179-2.236-.041-4.473-.061-6.71-.022-2.456-.448-4.945.207-7.36.72-2.653 2.959-3.615 5.491-2.987 1.914.475 2.594 1.848 2.719 3.726a6.8 6.8 0 0 1-3.179 6.641c-1.708 1.033-1.517 2.281-1.42 3.69.054.787.105 1.573.1 2.36a3.525 3.525 0 0 0 .318 1.359 1.09 1.09 0 0 0 1.753.531 4.456 4.456 0 0 0 2.075-3.872 41.046 41.046 0 0 0-.138-4.877c-.072-.688.264-.892.878-.8 1.836.286 2.4 1.219 2.312 2.743-.126 2.072-.05 4.143-.066 6.214a.753.753 0 0 0 .777.818.864.864 0 0 0 .973-.807c.039-.367.019-.74.029-1.11.059-2.169-.126-4.341.112-6.507a1.413 1.413 0 0 1 1.446-1.356 3.642 3.642 0 0 1 3.149 2.4 5.1 5.1 0 0 1 .3 1.814c-.039 1.577-.061 3.154-.13 4.73-.025.568.149.859.728.966a4.067 4.067 0 0 1 3.384 3.015c.117.395.422.524.7.706a3.943 3.943 0 0 1 1.813 2.806 6.426 6.426 0 0 0-1.593-1.957c-.368-.277-.646-.523-.8.236a1.284 1.284 0 0 1-1.868.847 1.251 1.251 0 0 1-.737-1.263 1.2 1.2 0 0 1 1-1.053c.556-.125.489-.293.237-.678a3.379 3.379 0 0 0-1.94-1.392c-.669-.2-.924-.007-.941.674-.047 1.922-.086 3.845-.137 5.767a6.987 6.987 0 0 1-1.33 4 3.107 3.107 0 0 1-3.38 1.2c-1.2-.324-1.538-1.327-1.8-2.328a8.726 8.726 0 0 1 2.5-8.855 2.485 2.485 0 0 0 .707-2.301z" transform="translate(-532.805 -420.467)"/>
                <path id="Path_176" data-name="Path 176" class="cls-2" d="M361.489 489.342c-.229.359-.409.647-.6.932a3.17 3.17 0 0 1-5.429-.334 7.615 7.615 0 0 1-.792-3.256c.013-.987 0-1.975.017-2.962.009-.434-.069-.634-.585-.53-1.357.273-1.371.251-1.345 1.641a27.46 27.46 0 0 0 .112 2.805 3.505 3.505 0 0 1-1.684 3.389 4.12 4.12 0 0 1-4.768-.394c-.363-.291-.665-.814-1.053-.879-.44-.073-.53.611-.833.92-1.7 1.728-4.106.651-5.2-.786a5.906 5.906 0 0 1-1.018-4c.054-1.307.086-2.612.049-3.917a1.8 1.8 0 0 0-.841-1.493c-.5-.334-.261-.559.117-.719a2.779 2.779 0 0 1 4.022 2.609q.06 2.809.125 5.619a1.385 1.385 0 0 0 1.367 1.513 1.444 1.444 0 0 0 1.592-1.468c.065-2.268-.1-4.531-.231-6.794-.031-.529-.289-1.223.142-1.549.5-.378 1.192-.119 1.76.138a2.636 2.636 0 0 1 1.611 2.368c.144 1.8.131 3.6.154 5.4.015 1.169.406 1.632 1.33 1.63 1.229 0 1.914-.62 1.918-1.743 0-1.16-.022-2.321 0-3.481a.82.82 0 0 0-.645-.921 2.893 2.893 0 0 1-1.413-.909 1.981 1.981 0 0 1-.2-2.153 1.786 1.786 0 0 1 1.811-1.032 1.92 1.92 0 0 1 1.641 1.731c.02.221.01.444.01.666 0 1.086.01 1.086 1.014.742a3.218 3.218 0 0 0 1.629-1.215 1.947 1.947 0 0 1 1.187-.817 1.2 1.2 0 0 1 1.654 1.218c.134 1.649.116 3.3.15 4.952.017.837.082 1.672.115 2.508a1.068 1.068 0 0 0 .721.941.9.9 0 0 0 1.018-.223 2.089 2.089 0 0 0 .788-1.613 23.864 23.864 0 0 0 .057-2.5c-.112-1.572-.036-3.158-.048-4.738 0-.518.132-.757.74-.646a2.694 2.694 0 0 1 2.082 1.08c.181.294.359.264.585.039a4.51 4.51 0 0 1 4.459-1.056 3.213 3.213 0 0 1 2.481 3.333c.027 1.728.016 3.456.038 5.184a2.427 2.427 0 0 0 .586 1.777 1.661 1.661 0 0 0 1.353.633c.233-.016.531-.061.556.311.018.275-.177.364-.4.452a4.22 4.22 0 0 1-5.57-3.523 46.432 46.432 0 0 0-.386-5.147 1.376 1.376 0 0 0-1.478-1.41 1.853 1.853 0 0 0-1.621 1.559c.033 1.6.135 3.2.2 4.8.033.788.1 1.578.06 2.364a1.32 1.32 0 0 1-1.474 1.318 1.387 1.387 0 0 1-1.494-1.458 1.5 1.5 0 0 0-.143-.906z" transform="translate(-323.438 -465.042)"/>
                <path id="Path_177" data-name="Path 177" class="cls-2" d="M244.542 427.473c-.6-.9-.558-1.394.192-2.058a1.627 1.627 0 0 1 1.966-.033c.5.452.523.879-.006 1.628-.318.45-.214.56.294.628 1.151.155 2.07-.567 3.123-.776.317-.063.222-.4.222-.635 0-1.778-.011-3.555-.011-5.333 0-.866.131-.944.988-.99 2.079-.113 2.779 1.175 2.858 2.791.051 1.035.052 2.074.023 3.11-.016.582.187.787.769.771a11.851 11.851 0 0 1 4.9.9c.035.015.055.064.107.127-1.643 0-3.263.024-4.881-.012-.618-.014-.8.19-.786.8.08 3.255.119 6.511.178 9.766.011.587.107 1.18.725 1.421.591.23 1.016-.154 1.433-.536a3.72 3.72 0 0 0 .912-1.582c.055-.151-.045-.484.278-.4.231.057.2.311.168.509a3.959 3.959 0 0 1-2.311 3.137 3.521 3.521 0 0 1-3.007.131 2.4 2.4 0 0 1-1.6-2.032 78.6 78.6 0 0 1-.608-8.1c-.025-.762-.105-1.523-.114-2.286-.005-.454-.207-.579-.6-.476-.45.12-.9.228-1.349.37a3.584 3.584 0 0 1-2.975-.39c-.259-.223-.805.123-.888-.45z" transform="translate(-244.126 -414.714)"/>
                <path id="Path_178" data-name="Path 178" d="M432.252 393.867c.555-.365 1.025-.667 1.487-.98a1.085 1.085 0 0 1 1.579.149c.414.455.817.92 1.237 1.369.108.115.214.326.416.219.184-.1.119-.314.1-.472a9.307 9.307 0 0 0-.227-1.231 1.123 1.123 0 0 1 .421-1.305 45.278 45.278 0 0 0 1.543-1.259c.177-.152.43-.316.3-.611a.641.641 0 0 0-.6-.355 7.156 7.156 0 0 0-1.752-.025c-.773.138-.977-.076-.994-.866a4.834 4.834 0 0 0-.7-2.373c-.346-.591-.483-.578-.852-.013a6.329 6.329 0 0 0-.863 1.68 2.962 2.962 0 0 1 .723-2.1c.646-1.04.812-1.008 1.549-.006a5.439 5.439 0 0 1 .919 1.919c.137.556.4.621.885.554a4.535 4.535 0 0 1 2.244.231 1.606 1.606 0 0 1 .669 2.554 3.474 3.474 0 0 1-.783.876c-.821.485-.82 1.118-.614 1.936a5.7 5.7 0 0 1-.13 2.635 1.047 1.047 0 0 1-1.449.738 7.573 7.573 0 0 1-2.737-1.552c-.279-.291-.463-.221-.734.019a9.923 9.923 0 0 1-2.545 1.618 1.306 1.306 0 0 1-1.979-1.254 8.523 8.523 0 0 1 .376-3.282.57.57 0 0 0-.16-.661 9.617 9.617 0 0 1-1.373-1.907c-.6-1.083-.4-1.816.732-2.272a4.47 4.47 0 0 1 5.307 1.612c.073.093.191.2.063.313s-.277.01-.406-.053a5.815 5.815 0 0 0-2.422-.733c-.392-.008-.977-.034-1.087.222-.157.369.386.6.655.862a7.864 7.864 0 0 0 .9.647 1.4 1.4 0 0 1 .592 1.791 2.753 2.753 0 0 0-.29 1.366z" transform="translate(-400.642 -384.924)" style="fill:#e0c398;fill-rule:evenodd"/>
            </g>
            <path id="Path_179" data-name="Path 179" class="cls-4" d="M680.828 447.985a7.2 7.2 0 0 1-2.888 5.345c-.207.166-.4.162-.385-.143.068-1.667-.2-3.333-.015-5a2.5 2.5 0 0 1 1.038-1.72 1.246 1.246 0 0 1 2.13.736c.065.288.092.582.12.782z" transform="translate(-369.137 -52.118)"/>
            <path id="Path_180" data-name="Path 180" class="cls-4" d="M735.826 573.242a14.178 14.178 0 0 1-.616 4.658 3.1 3.1 0 0 1-.694 1.2.569.569 0 0 1-1.03-.218 7.636 7.636 0 0 1 1.868-7.288c.106-.09.2-.258.367-.163.153.086.1.262.1.4.009.475.005.943.005 1.411z" transform="translate(-416.593 -158.851)"/>
            <path id="Path_181" data-name="Path 181" class="cls-5" d="M621.6 500.237a15.308 15.308 0 0 1 .358-2.858 1.717 1.717 0 0 1 .585-.993c.153-.136.32-.254.529-.141a.529.529 0 0 1 .337.527 5.427 5.427 0 0 1-1.809 3.465z" transform="translate(-321.544 -94.787)"/>
            <path id="Path_182" data-name="Path 182" d="M791.21 579.38c0 .4-.123.711-.5.73a.5.5 0 0 1-.517-.573.586.586 0 0 1 .622-.577c.339-.02.411.189.395.42z" transform="translate(-465.156 -165.285)" style="fill:#f3f0eb;fill-rule:evenodd"/>
            <path id="Path_183" data-name="Path 183" class="cls-5" d="M425.28 489.109c-.083.2.2.615-.306.636-.383.016-1.031-.693-1.046-1.1s.14-.661.59-.652c.742.016.782.528.762 1.116z" transform="translate(-153.159 -87.798)"/>
        </g>
    </g>
</svg>
