<svg xmlns="http://www.w3.org/2000/svg" width="61.991" height="62" viewBox="0 0 61.991 62">
    <g data-name="Group 27501">
        <g data-name="Group 27333">
            <g data-name="Group 27013">
                <path data-name="Path 11629" d="M3 61h51.311a1.958 1.958 0 0 0 1.9-2V1H6.8v30" transform="translate(4.78)" style="stroke:#0095da;stroke-linecap:round;stroke-linejoin:round;stroke-width:2px;fill:none"/>
                <path data-name="Path 11630" d="M1 33.607V44.4c0 2.159 2.381 3.925 5.29 3.925h0c2.91 0 5.29-1.766 5.29-3.925V13H1v20.607z" transform="translate(0 12.667)" style="stroke:#0095da;stroke-linecap:round;stroke-linejoin:round;stroke-width:2px;fill:none"/>
                <g data-name="Rectangle 3716" style="stroke:#0095da;stroke-linecap:round;stroke-linejoin:round;stroke-width:2px;fill:none">
                    <path style="stroke:none" d="M0 0h25.68v5.707H0z" transform="translate(25.287 19.546)"/>
                    <path style="fill:none" d="M-1-1h27.68v7.707H-1z" transform="translate(25.287 19.546)"/>
                </g>
                <path data-name="Line 8837" transform="translate(23.861 38.094)" style="stroke:#0095da;stroke-linecap:round;stroke-linejoin:round;stroke-width:2px;fill:none" d="M0 0h28.534"/>
                <path data-name="Line 8841" transform="translate(23.861 46.654)" style="stroke:#0095da;stroke-linecap:round;stroke-linejoin:round;stroke-width:2px;fill:none" d="M0 0h28.534"/>
            </g>
        </g>
    </g>
</svg>
