<svg xmlns="http://www.w3.org/2000/svg" width="58.085" height="64" viewBox="0 0 58.085 64">
    <g data-name="Path 11596" style="fill:none;stroke-linecap:round;stroke-linejoin:round">
        <path d="M30.042 1C15.107 1 3 12.64 3 27a25.783 25.783 0 0 0 13.13 22.266L13.4 61l12.508-8.336a28.129 28.129 0 0 0 4.134.336c14.936 0 27.042-11.64 27.042-26S44.978 1 30.042 1z" style="stroke:none" transform="translate(-1 1)"/>
        <path d="M30.042 1C15.107 1 3 12.64 3 27c0 9.46 5.273 17.716 13.13 22.266L13.401 61l12.508-8.336c1.35.2 2.725.336 4.133.336 14.936 0 27.043-11.64 27.043-26S44.978 1 30.042 1m0-2a29.8 29.8 0 0 1 11.28 2.19 29.028 29.028 0 0 1 9.229 5.983 27.871 27.871 0 0 1 6.24 8.901A26.97 26.97 0 0 1 59.085 27c0 3.79-.772 7.465-2.294 10.926a27.87 27.87 0 0 1-6.24 8.9 29.027 29.027 0 0 1-9.229 5.984A29.8 29.8 0 0 1 30.042 55c-1.136 0-2.338-.082-3.655-.251L14.51 62.664a2 2 0 0 1-3.057-2.117l2.403-10.33c-3.66-2.377-6.735-5.537-8.95-9.21A27.133 27.133 0 0 1 1 27c0-3.79.772-7.465 2.294-10.926a27.87 27.87 0 0 1 6.24-8.9 29.028 29.028 0 0 1 9.229-5.984A29.8 29.8 0 0 1 30.043-1z" style="fill:#0095da;stroke:none" transform="translate(-1 1)"/>
    </g>
</svg>
