<svg xmlns="http://www.w3.org/2000/svg" width="128.2" height="23.8" viewBox="0 0 128.2 23.8">
    <path d="M127.9 6.5h-2.8a1.746 1.746 0 0 0-1 .5l-10.6 13.9a.385.385 0 0 1-.7 0L102.9 7a1.491 1.491 0 0 0-1.1-.5H83a.645.645 0 0 1-.6-.6V1.3A1.155 1.155 0 0 0 81.2.1H52.3c-4.5.2-6.4.6-8.4 1.8C42 3 41 4.4 41 6.1c0 1.8 1.5 3.6 4.4 5.3q1.2.75 8.1 3.9c2.9 1.4 4.5 2.5 4.4 3.6-.2 1.8-1.8 2.4-5.6 2.4H34.8c-.4 0-.8-.1-.8-.4 0-.2.1-.3.3-.4 3.9-2.4 5.2-5.5 5.2-8.4 0-5.5-4.5-12-22.5-12H1.3A1.155 1.155 0 0 0 .1 1.3v21.4a1.155 1.155 0 0 0 1.2 1.2H58q5.4 0 8.4-1.8c1.9-1.1 2.8-2.5 2.8-4.2 0-1.8-1.5-3.5-4.4-5.3-.7-.5-3.5-1.8-8.1-3.9-2.9-1.3-4.4-2.4-4.4-3.3q0-2.7 5.7-2.7h13.3a.645.645 0 0 1 .6.6v15.5c0 2.3 1.5 5 6.1 5h36.5a1.581 1.581 0 0 0 1.3-.6l12.5-16.4c-.1.1.1-.3-.4-.3M14.6 21.3h-3.9a.645.645 0 0 1-.6-.6V3.2a.645.645 0 0 1 .6-.6h3.9c9.6 0 14.6 3.9 14.6 9.3 0 5.5-5.1 9.4-14.6 9.4m87.6.1H85.3c-2.3 0-2.9-.7-2.9-2.5V9.5A.56.56 0 0 1 83 9h9.8a1.489 1.489 0 0 1 .9.4l8.8 11.5c.1.3 0 .5-.3.5" transform="translate(-.1 -.1)" style="fill:#fff"/>
</svg>
