<?xml version="1.0" encoding="utf-8"?>
<!DOCTYPE svg PUBLIC "-//W3C//DTD SVG 1.1//EN" "http://www.w3.org/Graphics/SVG/1.1/DTD/svg11.dtd">
<svg version="1.1" xmlns="http://www.w3.org/2000/svg" xmlns:xlink="http://www.w3.org/1999/xlink" x="0px" y="0px" viewBox="0 0 1000 1000" enable-background="new 0 0 1000 1000" xml:space="preserve" style="width: 20px;height: 20px;">
<g fill="#0095da"><path d="M667.5,650c4.7,3.4,10.4,5.5,16.7,5.5c15.7,0,28.4-12.7,28.4-28.4c0-9.9-5-18.5-12.7-23.6l0,0c-33.9-23-71.2-41.3-111-54c91.6-47.6,154.3-143.3,154.3-253.7C743.2,138,615.3,10,457.4,10c-157.9,0-285.8,128-285.8,285.8c0,110.4,62.6,206.1,154.2,253.7c-174,55.5-300.2,217.9-301.3,410c0,0.2,0.1,2.5,0.1,2.5c1,14.8,13.2,26.6,28.2,26.6c15.1,0,27.5-11.8,28.5-26.6c0-207.6,168.3-376,376-376c77.8,0,150.1,23.6,210,64.1L667.5,650z M228.7,295.8c0-126.3,102.4-228.7,228.7-228.7c126.3,0,228.7,102.4,228.7,228.7c0,126.3-102.4,228.7-228.7,228.7C331.1,524.5,228.7,422.1,228.7,295.8z"/><path d="M947.9,786.1H827.4V666.6c0-15.2-12.3-27.6-27.6-27.6s-27.6,12.3-27.6,27.6v119.5H652c-15.2,0-27.6,12.3-27.6,27.6c0,15.2,12.3,27.6,27.6,27.6h120.3v121.2c0,15.2,12.3,27.6,27.6,27.6s27.6-12.3,27.6-27.6V841.2h120.5c15.2,0,27.6-12.3,27.6-27.6C975.4,798.4,963.1,786.1,947.9,786.1z"/></g>
</svg>