<svg xmlns="http://www.w3.org/2000/svg" width="20" height="20" viewBox="0 0 20 20">
    <g data-name="Group 27507">
        <path data-name="Path 11648" d="M212.519 327.8h-5.9c-.089-.013-.178-.029-.268-.038-.485-.048-.972-.079-1.455-.143a19.076 19.076 0 0 1-4.257-1.083 1.157 1.157 0 0 0-.4-.07c-1.223-.005-2.445-.01-3.668 0a.7.7 0 0 1-.776-.5v-8.906a.722.722 0 0 1 .778-.476c1.211.015 2.422.007 3.632 0a.5.5 0 0 0 .268-.078 18.875 18.875 0 0 0 2.547-2.091 6.984 6.984 0 0 0 1.8-2.7c.3-.872.643-1.73.986-2.586a3.35 3.35 0 0 1 .407-.7 1.85 1.85 0 0 1 1.028-.623h.508c.042.014.083.031.125.041a1.532 1.532 0 0 1 1.249 1.15 5.819 5.819 0 0 1 .182 1.171 17.208 17.208 0 0 1-.4 3.852c-.05.271-.107.541-.166.835h.749c1.249 0 2.5-.032 3.747.022a2.042 2.042 0 0 1 1.639 3.061c-.028.049-.051.1-.077.151l.056-.029a7.06 7.06 0 0 1 .669.82 3.824 3.824 0 0 1 .275.8v.352c-.014.062-.029.124-.041.186a2.065 2.065 0 0 1-.786 1.283c-.059.046-.12.089-.18.133a2.1 2.1 0 0 1-.79 3.034c.019.04.037.081.057.12a2.045 2.045 0 0 1-.53 2.551 2.575 2.575 0 0 1-1.008.461zm-3.244-1.153v-.026h2.812a1.811 1.811 0 0 0 .33-.027.861.861 0 0 0 .691-.792.879.879 0 0 0-.816-.941 1 1 0 0 1-.472-.191.507.507 0 0 1-.137-.59.55.55 0 0 1 .526-.4c.325-.016.651 0 .975-.021a.855.855 0 0 0 .781-.83c.015-.509-.318-.846-.908-.919a.58.58 0 0 1-.552-.612.587.587 0 0 1 .6-.566c.189-.006.378 0 .566 0a.88.88 0 1 0-.006-1.757c-.208 0-.417.007-.625-.005a.576.576 0 0 1-.54-.565.583.583 0 0 1 .52-.6c.077-.01.156-.014.232-.029a.875.875 0 0 0-.214-1.732h-4.725c-.117 0-.235.006-.351-.005a.591.591 0 0 1-.545-.743c.013-.064.029-.127.044-.19a24.83 24.83 0 0 0 .663-4.155 5.023 5.023 0 0 0-.1-1.532.482.482 0 0 0-.39-.408.5.5 0 0 0-.544.216 1.717 1.717 0 0 0-.2.376c-.361.933-.723 1.866-1.071 2.8a6.611 6.611 0 0 1-1.125 1.928 17.347 17.347 0 0 1-3.387 3.046.34.34 0 0 0-.166.317q.008 3.749 0 7.5a.332.332 0 0 0 .273.378 17.268 17.268 0 0 0 4.718.988c1.047.052 2.096.058 3.143.087zm-12.269-8.869v7.479h2.947v-7.479z" transform="translate(-195.8 -307.8)" style="fill:#0095da;fill-rule:evenodd"/>
    </g>
</svg>
