<?xml version="1.0" encoding="utf-8"?>
<!DOCTYPE svg PUBLIC "-//W3C//DTD SVG 1.1//EN" "http://www.w3.org/Graphics/SVG/1.1/DTD/svg11.dtd">
<svg version="1.1" xmlns="http://www.w3.org/2000/svg" xmlns:xlink="http://www.w3.org/1999/xlink" x="0px" y="0px" viewBox="0 0 1000 1000" enable-background="new 0 0 1000 1000" xml:space="preserve" style="width: 20px;height: 20px;">
<g><g fill="#0095da"><path d="M500,207.4c108.6,0,201.2,38.3,277.7,114.8c76.5,76.5,114.8,168.3,114.8,275.4c0,108.6-38.6,201.2-115.9,277.7C699.3,951.7,607.1,990,500,990c-107.1,0-199.3-38.3-276.6-114.8c-77.3-76.5-115.9-169.1-115.9-277.7h98.7c0,81.1,28.7,150.3,86.1,207.7c57.4,57.4,126.6,86.1,207.7,86.1s150.3-28.7,207.7-86.1c57.4-57.4,86.1-126.6,86.1-207.7s-28.7-150.3-86.1-207.7c-57.4-57.4-126.6-86.1-207.7-86.1v197.4L254.4,255.6L500,10V207.4z"/></g></g>
</svg>