<svg width="152" height="28" viewBox="0 0 152 28" fill="none" xmlns="http://www.w3.org/2000/svg">
<path d="M28.153 7.73199L21.511 27.558H18.636L14.076 12.5891L9.51599 27.558H6.64099L0 7.73199H3.073L8.12903 23.295L12.689 7.73199H15.465L20.124 23.295L25.18 7.73199H28.153ZM88.226 14.671V27.657H85.351V14.671C85.351 12.787 84.756 10.21 79.998 10.21C78.2187 10.2341 76.4511 10.5009 74.744 11.0031V27.558H71.869V9.31805C74.4941 8.03552 77.3734 7.35787 80.295 7.33502C85.351 7.33602 88.226 10.012 88.226 14.671ZM110.431 17.645C110.431 26.17 105.375 27.955 101.113 27.955C96.851 27.955 91.795 26.171 91.795 17.645C91.795 9.11902 96.851 7.33502 101.113 7.33502C105.276 7.33602 110.431 9.21902 110.431 17.645ZM107.556 17.645C107.556 12.292 105.573 10.012 101.113 10.012C96.653 10.012 94.67 12.292 94.67 17.645C94.67 22.998 96.653 25.278 101.113 25.278C105.573 25.278 107.556 23 107.556 17.645ZM38.856 7.33502C29.835 7.33502 30.133 15.761 30.133 17.843C30.133 26.17 35.09 27.855 39.253 27.855C41.6733 27.9253 44.0786 27.451 46.291 26.467V23.493C44.1861 24.5944 41.8232 25.1081 39.451 24.98C35.387 24.98 32.909 23.295 32.909 17.843C32.909 11.994 34.892 10.012 38.758 10.012C44.21 10.012 44.607 15.7611 44.607 16.7531H36.181V17.843C36.1613 18.308 36.1948 18.7737 36.281 19.231H47.581C47.6487 18.7715 47.6822 18.3075 47.681 17.843C47.582 17.249 47.88 7.336 38.859 7.336L38.856 7.33502ZM142.645 7.33502C133.624 7.33502 133.922 15.761 133.922 17.843C133.922 26.17 138.879 27.855 143.042 27.855C145.461 27.9148 147.864 27.4409 150.08 26.467V23.493C147.975 24.5944 145.612 25.1081 143.24 24.98C139.176 24.98 136.698 23.295 136.698 17.843C136.698 11.994 138.681 10.012 142.547 10.012C147.999 10.012 148.396 15.7611 148.396 16.7531H139.97V17.843C139.95 18.308 139.984 18.7737 140.07 19.231H151.37C151.438 18.7715 151.471 18.3075 151.47 17.843C151.371 17.249 151.668 7.336 142.648 7.336L142.645 7.33502ZM58.98 7.33502C58.3146 7.34746 57.6514 7.41436 56.997 7.53503V10.211C57.6528 10.1002 58.3153 10.0334 58.98 10.011C63.342 10.011 65.225 12.192 65.225 17.347C65.225 24.385 61.855 25.277 59.376 25.277C55.906 25.277 54.122 24.087 54.122 21.807V0.200012H51.25V21.711C51.25 23.198 51.845 27.9561 59.379 27.9561C62.65 27.9561 68.102 26.568 68.102 17.448C68.1 9.12 63.146 7.336 58.982 7.336L58.98 7.33502ZM127.58 0.098999V21.709C127.58 24.088 125.796 25.178 122.326 25.178C119.848 25.178 116.477 24.385 116.477 17.248C116.477 12.093 118.361 9.91205 122.722 9.91205C123.387 9.92452 124.051 9.99136 124.705 10.112V7.435C124.049 7.32415 123.387 7.25738 122.722 7.23505C118.558 7.23505 113.602 9.01901 113.602 17.247C113.602 26.367 119.054 27.755 122.325 27.755C129.859 27.755 130.454 22.898 130.454 21.51V0H127.579L127.58 0.098999Z" fill="#283755"/>
</svg>
